<svg width="1440" height="856" viewBox="0 0 1440 856" fill="none" xmlns="http://www.w3.org/2000/svg">
<path d="M0 286.5C0 286.5 165.463 226.977 247.435 253.596C336.654 282.568 425.003 315.077 450.168 405.359C458.776 436.169 462.175 468.382 472.933 498.506C501.155 577.448 583.419 633.711 667.305 631.437C774.703 628.539 847.737 547.105 936.767 500.095C1001.32 466.013 1097.52 497.962 1132.82 579.115C1164.53 651.982 1112.92 729.117 1096.27 798.962C1091.73 818.019 1090.39 837.022 1091.96 855.5H1440.11L1438 0H2L0 286.5Z" fill="#EBF4FF"/>
<path opacity="0.3" d="M1440.5 1V548C1399 499.838 1374.43 437.374 1332.74 389.366C1274.33 322.044 1180.97 292.668 1091.81 294.412C1002.66 296.157 916.431 325.534 833.948 359.397C786.299 378.962 737.34 400.551 685.824 399.024C624.921 397.216 569.569 363.135 523.448 323.353C477.326 283.602 436.911 237.029 387.079 202.012C276.153 124.01 121.355 117.389 0.5 177V1H1440.5Z" fill="#2F80ED"/>
<path d="M824.313 735.446C828.023 748.998 834.541 762.113 842.742 773.703C875.954 820.681 930.246 863.952 990.836 840.463C1036.99 822.582 1071.35 771.647 1090.63 727.97C1105.19 694.978 1106.9 658.25 1087.66 626.504C1054.86 572.361 985.754 565.568 932.834 591.706C897.626 609.089 861.827 636.441 836.786 666.816C820.01 687.221 817.92 711.988 824.313 735.446Z" fill="#EBF4FF"/>
</svg>
