<?xml version="1.0" encoding="utf-8"?>
<!-- Generator: Adobe Illustrator 26.4.1, SVG Export Plug-In . SVG Version: 6.00 Build 0)  -->
<svg version="1.1" id="Capa_1" xmlns="http://www.w3.org/2000/svg" xmlns:xlink="http://www.w3.org/1999/xlink" x="0px" y="0px"
	 viewBox="0 0 200 200" style="enable-background:new 0 0 200 200;" fill="#323450" xml:space="preserve">
<path d="M168.97,182.39c-1.55-8.17-3.22-16.46-4.83-24.48c-0.67-3.31-1.33-6.63-1.99-9.94l-0.29-1.5c-0.3-1.56-0.62-3.16-0.99-4.73
	c-1.65-6.88-5.97-11.61-12.84-14.05c-3.58-1.27-7.18-2.51-10.77-3.75c-5.13-1.77-10.43-3.6-15.61-5.49
	c-0.78-0.29-1.75-1.22-2.6-2.48c-0.86-2.09-0.78-5.04,0.84-6.14c9.37-6.39,15.02-15.39,16.8-26.76l0.21-0.04
	c0.34-0.06,0.64-0.12,0.95-0.17c4.11-0.66,7.07-2.3,8.8-4.87c1.74-2.59,2.15-5.99,1.2-10.12c-0.21-0.93-0.22-1.96-0.22-2.96l0-0.26
	c-0.01-2.18,0.02-4.37,0.04-6.55c0.05-4.72,0.1-9.61-0.18-14.4c-0.21-3.68-1.03-7.76-2.49-12.46c-1.24-3.99-4.26-6.57-7.18-9.06
	c-1.03-0.88-2.1-1.79-3.07-2.75C121.85,6.67,105.99,2.3,87.6,6.44c-7.79,1.75-14.63,5.46-20.33,11.02
	c-0.74,0.73-0.81,1.99-0.88,3.21c-0.03,0.51-0.06,1.03-0.13,1.48l-0.11,0.61l0.62-0.02c0.4-0.02,0.8-0.02,1.2-0.03
	c1.03-0.02,2.09-0.04,3.13-0.2c0.52-0.08,0.91-0.49,1.26-0.85c0.14-0.15,0.28-0.29,0.42-0.41c17.53-14.19,41.71-12.83,57.5,3.24
	c0.71,0.72,1.48,1.47,2.39,1.98c3.91,2.19,6.42,5.55,6.88,9.21c0.77,6.12,1.12,12.19,1.49,18.61c0.14,2.41,0.27,4.83,0.44,7.27
	l-4.51-0.87c0-0.73,0.01-1.46,0.01-2.18c0.01-1.97,0.03-3.82-0.03-5.72c-0.1-3.16-1.64-5.05-4.47-5.48
	c-3.46-0.52-6.18-2.41-8.58-5.93c-1.24-1.82-2.76-2.9-4.39-3.14c-1.62-0.23-3.3,0.34-4.96,1.7c-9.59,7.85-21.03,11.03-34.97,9.69
	c-9.34-0.89-14.1,2.13-17.44,11.13l-0.42,0.05c-0.58,0.06-1.18,0.13-1.78,0.23c-0.57,0.09-1.14,0.21-1.71,0.33l-0.17,0.04
	c-0.82-11.97,0.31-18.51,4.71-27.68l0.11-0.22c0.84-1.74,1.99-4.12-0.78-5.62c-0.96-0.52-1.8-0.66-2.56-0.42
	c-1.27,0.4-1.97,1.78-2.59,2.99l-0.2,0.39c-3.7,7.16-5.49,14.89-5.49,23.62l0,1.73c0.02,4.2,0.03,8.55-0.64,12.69
	c-1.01,6.24,1.82,11.31,7.38,13.23c1.04,0.36,2.13,0.58,3.18,0.79c0.36,0.07,0.71,0.14,1.06,0.22c1.89,11.82,7.73,20.88,17.35,26.93
	c1.98,1.24,1.73,2.88,1.48,4.61c-0.06,0.44-0.13,0.87-0.16,1.28c-0.05,0.74-1.45,2.04-2.67,2.48c-5.18,1.89-10.48,3.72-15.61,5.49
	c-3.59,1.24-7.19,2.48-10.77,3.75c-6.87,2.44-11.18,7.16-12.84,14.05c-0.38,1.57-0.69,3.18-0.99,4.73l-0.29,1.5
	c-0.66,3.29-1.32,6.58-1.98,9.87c-1.62,8.04-3.29,16.36-4.85,24.55c-0.87,4.6-0.17,8.44,2.03,11.12c1.96,2.38,4.98,3.65,8.76,3.68
	c17.37,0.13,36.42,0.13,58.24,0c10.91,0.06,21.13,0.1,30.79,0.1c9.66,0,18.77-0.03,27.45-0.1c3.77-0.03,6.8-1.3,8.76-3.68
	C169.14,190.83,169.84,186.99,168.97,182.39z M137.09,166.62c0.02,0.26,0.03,0.52,0.03,0.76c-0.01,5.91-0.01,11.81-0.01,17.87l0,5.1
	c-3.55,0-25.07-0.01-37.16,0.14c-9.62-0.12-25.21-0.14-32.97-0.14c-2,0-3.48,0-4.21,0l0-5.26c0-6,0-11.85-0.01-17.71
	c0-0.25,0.02-0.5,0.03-0.76c0.05-0.86,0.1-1.74-0.32-2.43c-0.56-0.91-1.95-2.6-3.19-2.52c-1.24,0.08-2.46,1.73-2.98,2.81
	c-0.35,0.73-0.28,1.59-0.2,2.49c0.02,0.21,0.04,0.42,0.05,0.64H40.52c0.51-2.43,1.01-4.84,1.5-7.26c1.18-5.77,2.4-11.74,3.8-17.53
	c0.84-3.49,4.44-7.46,7.86-8.67c6.47-2.29,12.95-4.55,19.58-6.87l7.73-2.7c1.55,9.2,8.53,11.2,15.88,11.97
	c1.5,0.07,3.75,0.03,4.64,0c1.75-0.05,2.56-0.08,2.94-0.17c6.33-0.83,12.94-2.91,14.44-11.8l7.73,2.7
	c6.64,2.31,13.12,4.58,19.58,6.87c2.86,1.01,6.48,3.07,7.48,7.12c1.56,6.3,2.89,12.8,4.18,19.08c0.49,2.41,0.99,4.83,1.5,7.25
	h-15.64c0.01-0.22,0.03-0.43,0.05-0.64c0.08-0.9,0.15-1.75-0.2-2.49c-0.52-1.08-1.74-2.73-2.98-2.81c-1.23-0.08-2.63,1.61-3.19,2.52
	C136.99,164.88,137.04,165.77,137.09,166.62z M112.05,123.76c-0.08,2.5-1.46,4.28-3.9,5.02c-1.4,0.42-2.89,0.68-4.48,0.96
	l-0.18,0.03c-0.22,0.01-1.32,0-2.38-0.01c-1-0.01-2.14-0.02-3.11-0.02c-0.66,0-1.25,0-1.66,0.02l-0.11-0.02
	c-1.58-0.28-3.08-0.54-4.48-0.96c-2.44-0.74-3.83-2.52-3.91-5.02c-0.07-2.29-0.06-4.59-0.04-7.02c0.01-0.87,0.01-1.75,0.01-2.65
	c8.37,2.42,16.23,2.33,24.01-0.26c0.02,1.14,0.07,2.34,0.11,3.53C112.02,119.6,112.11,121.9,112.05,123.76z M143.96,190.49v-15.96
	h16.67c0.2,1.02,0.41,2.03,0.62,3.04c0.53,2.57,1.08,5.22,1.42,7.84c0.21,1.6-0.07,2.9-0.81,3.77c-0.68,0.8-1.73,1.23-3.14,1.27
	c-3.54,0.11-7.16,0.08-10.66,0.06C146.7,190.5,145.33,190.49,143.96,190.49z M98.02,109.07c-16.85-1.03-28.95-13.45-29.41-30.21
	c-0.12-4.24-0.13-8.88-0.05-14.17c0.05-3.04,0.98-5.43,2.68-6.91c1.35-1.17,3.2-1.77,5.41-1.77c0.55,0,1.13,0.04,1.73,0.11
	c15.11,1.92,28.36-1.52,39.4-10.24l12.12,8.75c0,2.64,0.08,5.33,0.16,8.16c0.19,6.65,0.39,13.53-0.36,20.34
	c-1.64,14.9-14.53,25.99-29.76,25.99C99.31,109.13,98.67,109.11,98.02,109.07z M51.82,190.51c-3.5,0.02-7.12,0.05-10.66-0.06
	c-1.4-0.04-2.46-0.47-3.14-1.27c-0.74-0.87-1.02-2.17-0.81-3.77c0.34-2.62,0.89-5.27,1.42-7.84c0.21-1.01,0.42-2.02,0.62-3.04h16.67
	v15.96C54.55,190.49,53.18,190.5,51.82,190.51z M137.25,76.15v-8.46c2.2,0.16,4.6,1.05,4.66,4.13
	C141.96,74.29,140.43,75.71,137.25,76.15z M61.74,67.57v8.57c-3.15-0.31-4.65-1.66-4.69-4.23C57.01,69.42,58.42,68.11,61.74,67.57z"
	/>
</svg>
