<?xml version="1.0" encoding="utf-8"?>
<!-- Generator: Adobe Illustrator 26.4.1, SVG Export Plug-In . SVG Version: 6.00 Build 0)  -->
<svg version="1.1" id="Capa_1" xmlns="http://www.w3.org/2000/svg" xmlns:xlink="http://www.w3.org/1999/xlink" x="0px" y="0px"
	 viewBox="0 0 200 200" style="enable-background:new 0 0 200 200;" fill="#323450" xml:space="preserve">
<g>
	<path d="M149.16,70.9c4.33,5.48,4.65,11.23,1.64,17.22c-1.42,2.83-3.82,4.79-6.73,5.92c-1.9,0.74-3.99,0.95-5.96,1.53
		c-0.51,0.15-1.08,0.76-1.24,1.27c-2,6.22-4.94,11.97-9.56,16.55c-2.26,2.24-3.05,4.43-2.77,7.37c0.15,1.62,0.03,3.27,0.03,5.08
		c3.31,0,6.54-0.15,9.74,0.04c3.33,0.2,6.76,0.3,9.93,1.2c7.28,2.09,13.58,5.89,18.69,11.66c6.97,7.88,10.66,17.03,10.98,27.46
		c0.24,7.99,0.08,15.98,0.06,23.98c-0.01,2.66-1.38,3.99-4.02,4.07c-0.35,0.01-0.71,0-1.06,0c-45.98,0-91.97,0-137.95,0
		c-4.11,0-5.14-1.02-5.14-5.08c0-6.99-0.01-13.99,0-20.98c0.01-7.95,1.86-15.38,5.89-22.32c4.15-7.15,9.85-12.56,17.17-16.3
		c5.08-2.59,10.5-3.76,16.19-3.73c3.34,0.02,6.67,0,10.14,0c0-3.12,0.02-6.1-0.03-9.09c-0.01-0.39-0.3-0.87-0.61-1.16
		c-5.59-5.25-9.3-11.66-11.66-18.91c-0.09-0.28-0.19-0.55-0.3-0.82c-0.04-0.1-0.13-0.19-0.2-0.28C48,95.28,42.71,79.94,50.24,71.18
		c-1.09-2.54-2.49-4.82-3.05-7.3c-0.88-3.89,0.51-7.29,3.58-9.9c0.86-0.73,1.86-1.3,2.71-2.05c0.38-0.34,0.72-0.91,0.77-1.42
		c0.94-8.11,3.86-15.34,9.01-21.77c2.47-3.08,5.46-5.41,8.51-7.78c2.96-2.29,6.28-3.7,9.78-4.87c0.51-0.17,0.99-0.91,1.18-1.48
		c1.23-3.72,3.1-7.23,7.13-8c6.59-1.26,13.36-1.24,19.95-0.02c3.96,0.73,5.95,4.12,7.04,7.83c0.32,1.08,0.85,1.59,1.93,1.91
		c6.58,1.96,11.99,5.89,16.46,10.89c5.83,6.52,9.29,14.27,10.23,23.06c0.07,0.65,0.65,1.46,1.23,1.81
		c6.27,3.83,7.92,11.04,3.96,16.58C150.16,69.38,149.69,70.11,149.16,70.9z M131.64,73.41c-21.29,0-42.36,0-63.48,0
		c0,4.19-0.16,8.29,0.03,12.38c0.5,10.69,5.07,19.48,13.22,26.29c4.8,4.01,10.58,6.05,16.85,6.3c8.93,0.36,16.6-2.54,22.96-8.99
		c4.31-4.36,7.22-9.44,8.99-15.26C132.27,87.36,131.41,80.41,131.64,73.41z M68.11,133.26c0,0.74,0,1.32,0,1.89
		c0,6.88-0.01,13.75,0.01,20.63c0,1.64-0.43,3.04-1.96,3.85c-2.49,1.32-5.09-0.57-5.1-3.73c-0.03-6.82-0.01-13.63-0.01-20.45
		c0-0.62,0-1.23,0-2.1c-2.51,0.62-4.76,1.18-6.93,1.71c0,17.53,0,34.83,0,52.08c2.35,0,4.57,0,6.93,0c0-0.4,0-0.74,0-1.07
		c0.02-2.64-0.05-5.29,0.1-7.93c0.11-1.94,1.71-3.3,3.51-3.25c1.75,0.05,3.15,1.35,3.37,3.23c0.1,0.93,0.08,1.88,0.08,2.82
		c0.01,2.09,0,4.17,0,6.21c9.53,0,18.81,0,28.22,0c0-0.63,0-1.21,0-1.78c0-9.64-0.04-19.28,0.04-28.91c0.01-1.67-0.55-2.9-1.61-4.04
		c-4.11-4.42-8.22-8.84-12.31-13.27c-0.94-1.02-1.82-2.11-2.7-3.19c-1.45-1.77-2.96-3.16-5.6-2.74
		C72.26,133.5,70.28,133.26,68.11,133.26z M131.62,187.21c0-2.74-0.07-5.31,0.03-7.88c0.04-1.01,0.26-2.14,0.77-2.98
		c0.75-1.24,2.07-1.71,3.54-1.31c1.67,0.45,2.61,1.6,2.65,3.31c0.06,2.92,0.02,5.84,0.02,8.79c2.47,0,4.73,0,7,0
		c0-17.39,0-34.69,0-52.1c-2.32-0.55-4.56-1.07-6.95-1.64c0,7.55,0.01,14.78-0.01,22c0,0.75-0.04,1.54-0.26,2.26
		c-0.47,1.51-1.63,2.33-3.16,2.36c-1.61,0.04-2.83-0.78-3.34-2.35c-0.23-0.71-0.26-1.5-0.27-2.25c-0.02-6.88-0.01-13.75-0.01-20.63
		c0-0.5-0.05-1-0.08-1.51c-2.17,0-4.21,0.25-6.16-0.06c-2.8-0.45-4.15,1.3-5.63,3.04c-0.37,0.44-0.65,0.95-1.03,1.37
		c-4.58,4.94-9.17,9.88-13.77,14.81c-1.07,1.14-1.61,2.38-1.59,4.05c0.09,9.34,0.04,18.69,0.04,28.03c0,0.86,0,1.73,0,2.6
		c0.32,0.05,0.49,0.1,0.65,0.1C113.15,187.21,122.27,187.21,131.62,187.21z M117.5,23.83c0,5.24,0.01,10.35,0,15.46
		c-0.01,2.7-1.37,4.38-3.52,4.38c-2.15,0.01-3.51-1.68-3.54-4.37c0-0.35,0-0.71,0-1.06c0-6.46,0.01-12.93,0-19.39
		c-0.01-3.81-1.67-5.48-5.38-5.48c-3.82,0-7.64,0.05-11.47-0.02c-1.54-0.03-2.7,0.59-3.31,1.86c-0.54,1.12-0.94,2.43-0.96,3.66
		c-0.09,6.87-0.03,13.75-0.05,20.63c-0.01,2.54-1.45,4.19-3.55,4.18c-2.1-0.02-3.49-1.67-3.5-4.22c-0.02-3.58-0.01-7.17-0.01-10.75
		c0-1.6,0-3.21,0-4.88c-11,3.48-20.03,15.67-20.79,27.22c25.62,0,51.25,0,76.87,0C137.47,39.27,128.32,27.2,117.5,23.83z
		 M99.88,58.51c-10.52,0-21.03,0-31.55,0c-3.47,0-6.93-0.03-10.4,0.01c-2.5,0.03-4.07,1.68-3.92,3.98c0.15,2.23,1.75,3.41,4.66,3.41
		c27.44,0,54.88,0,82.31,0c0.53,0,1.06,0.02,1.58-0.06c2.1-0.33,3.37-2.08,3.07-4.18c-0.3-2.1-1.73-3.15-4.34-3.15
		C127.5,58.51,113.69,58.51,99.88,58.51z M46.87,139.68c-0.19-0.13-0.38-0.26-0.57-0.39c-2.08,2.33-4.25,4.59-6.22,7.02
		c-4.14,5.1-6.55,11.04-6.92,17.53c-0.43,7.67-0.24,15.37-0.31,23.06c0,0.09,0.13,0.18,0.15,0.19c4.67,0,9.28,0,13.87,0
		C46.87,171.22,46.87,155.45,46.87,139.68z M166.88,187.15c0-6.87,0.1-13.56-0.03-20.25c-0.13-6.57-1.94-12.7-5.5-18.26
		c-0.85-1.32-1.63-2.72-2.68-3.86c-1.74-1.89-3.67-3.59-5.76-5.6c0,16.37,0,32.18,0,47.97C157.6,187.15,162.17,187.15,166.88,187.15
		z M117.5,121.42c-11.84,5.91-23.52,5.83-35.28,0.03c0,1.78,0.08,3.31-0.02,4.83c-0.1,1.46,0.41,2.51,1.42,3.57
		c4.45,4.67,8.82,9.41,13.19,14.16c1.04,1.13,1.98,2.35,3.07,3.64c1.37-1.61,2.49-3.03,3.71-4.35c4.33-4.7,8.7-9.36,13.03-14.06
		c0.41-0.44,0.81-1.08,0.84-1.64C117.56,125.62,117.5,123.64,117.5,121.42z M61.04,73.44c-4.14,0.01-7.02,3.16-7.07,7.39
		c-0.04,3.13,3.69,7.9,7.07,7.14C61.04,83.13,61.04,78.28,61.04,73.44z M138.69,88.06c3.77,0.39,7.14-4.34,7.06-7.36
		c-0.12-4.17-2.83-7.13-7.06-7.31C138.69,78.24,138.69,83.09,138.69,88.06z"/>
</g>
</svg>
